<?xml version="1.0" encoding="utf-8"?>
<?xml-stylesheet type="text/xsl" href="rss1.xsl"?>
<rss version="2.0" xmlns:atom="http://www.w3.org/2005/Atom" xmlns:content="http://purl.org/rss/1.0/modules/content/" xmlns:dc="http://purl.org/dc/elements/1.1/" xmlns:media="http://search.yahoo.com/mrss/">
<channel>
 <title>Getty</title>
 <link>http://www.gettyimg.com/</link>
 <atom:link href="http://www.gettyimg.com/" rel="self" type="application/rss+xml" />

 
                <item>
                <title><![CDATA[【HD Live Performances】FEED - BRIT Awards 2024 (+ Red Carpet) FEED H264 MPA2.0 4.2.2-10b-TSS]]></title>
                <link><![CDATA[https://sharemania.us/threads/brit-awards-2024-red-carpet-feed-h264-mpa2-0-4-2-2-10b-tss.239112/]]></link>
                <description><![CDATA[<article>
<blockquote class="messageText SelectQuoteContainer ugc baseHtml">
<div style="text-align: center"><img src="https://i.imgur.com/9YgSWhk.png" class="bbCodeImage LbImage" alt="[​IMG]" data-url="https://i.imgur.com/9YgSWhk.png" style=""> <br>
<br>
<img src="https://i.imgur.com/I18RaJV.png" class="bbCodeImage LbImage" alt="[​IMG]" data-url="https://i.imgur.com/I18RaJV.png" style=""> <br>
<br>
​</div>
<div class="ToggleTriggerAnchor bbCodeSpoilerContainer">
<button type="button" class="button bbCodeSpoilerButton ToggleTrigger Tooltip JsOnly" data-target="> .SpoilerTarget"><span>Spoiler: <span class="SpoilerTitle">Media Info - Red Carpet</span></span></button>
<div class="SpoilerTarget bbCodeSpoilerText"><div style="text-align: left">General<br>
ID : 0 (0x0)<br>
Complete name : Z:\Satellite Recordings\Award Shows\2024 Brit Awards\2024 Brit Awards - 02-03-2024 - Red Carpet.ts<br>
Format : MPEG-TS<br>
File size : 11.5 GiB<br>
Duration : 1 h 1 min<br>
Overall bit rate mode : Variable<br>
Overall bit rate : 26.9 Mb/s<br>
<br>
Video<br>
ID : 512 (0x200)<br>
Menu ID : 1 (0x1)<br>
Format : AVC<br>
Format/Info : Advanced Video Codec<br>
Format profile : High 4:2:2@L4<br>
Format settings : CABAC / 3 Ref Frames<br>
Format settings, CABAC : Yes<br>
Format settings, Reference frames : 3 frames<br>
Codec ID : 27<br>
Duration : 1 h 1 min<br>
Bit rate mode : Constant<br>
Bit rate : 24.1 Mb/s<br>
Nominal bit rate : 32.7 Mb/s<br>
Width : 1 920 pixels<br>
Height : 1 080 pixels<br>
Display aspect ratio : 16:9<br>
Frame rate : 25.000 FPS<br>
Color space : YUV<br>
Chroma subsampling : 4:2:2<br>
Bit depth : 10 bits<br>
Scan type : MBAFF<br>
Scan type, store method : Separated fields<br>
Scan order : Top Field First<br>
Bits/(Pixel*Frame) : 0.464<br>
Stream size : 10.3 GiB (89%)<br>
Color range : Limited<br>
Color primaries : BT.709<br>
Transfer characteristics : BT.709<br>
Matrix coefficients : BT.709<br>
<br>
Audio #1<br>
ID : 4112 (0x1010)<br>
Menu ID : 1 (0x1)<br>
Format : MPEG Audio<br>
Format version : Version 1<br>
Format profile : Layer 2<br>
Codec ID : 3<br>
Duration : 1 h 1 min<br>
Bit rate mode : Constant<br>
Bit rate : 384 kb/s<br>
Channel(s) : 2 channels<br>
Sampling rate : 48.0 kHz<br>
Frame rate : 41.667 FPS (1152 SPF)<br>
Compression mode : Lossy<br>
Delay relative to video : 16 ms<br>
Stream size : 168 MiB (1%)<br>
Language : German<br>
Language, more info : Clean effects<br>
<br>
Audio #2<br>
ID : 4128 (0x1020)<br>
Menu ID : 1 (0x1)<br>
Format : MPEG Audio<br>
Format version : Version 1<br>
Format profile : Layer 2<br>
Codec ID : 3<br>
Duration : 1 h 1 min<br>
Bit rate mode : Constant<br>
Bit rate : 384 kb/s<br>
Channel(s) : 2 channels<br>
Sampling rate : 48.0 kHz<br>
Frame rate : 41.667 FPS (1152 SPF)<br>
Compression mode : Lossy<br>
Delay relative to video : 16 ms<br>
Stream size : 168 MiB (1%)<br>
Language : German<br>
Language, more info : Clean effects<br>
<br>
Audio #3<br>
ID : 4144 (0x1030)<br>
Menu ID : 1 (0x1)<br>
Format : MPEG Audio<br>
Format version : Version 1<br>
Format profile : Layer 2<br>
Codec ID : 3<br>
Duration : 1 h 1 min<br>
Bit rate mode : Constant<br>
Bit rate : 384 kb/s<br>
Channel(s) : 2 channels<br>
Sampling rate : 48.0 kHz<br>
Frame rate : 41.667 FPS (1152 SPF)<br>
Compression mode : Lossy<br>
Delay relative to video : 16 ms<br>
Stream size : 168 MiB (1%)<br>
Language : German<br>
Language, more info : Clean effects<br>
<br>
Audio #4<br>
ID : 4160 (0x1040)<br>
Menu ID : 1 (0x1)<br>
Format : MPEG Audio<br>
Format version : Version 1<br>
Format profile : Layer 2<br>
Codec ID : 3<br>
Duration : 1 h 1 min<br>
Bit rate mode : Constant<br>
Bit rate : 384 kb/s<br>
Channel(s) : 2 channels<br>
Sampling rate : 48.0 kHz<br>
Frame rate : 41.667 FPS (1152 SPF)<br>
Compression mode : Lossy<br>
Delay relative to video : 16 ms<br>
Stream size : 168 MiB (1%)<br>
Language : German<br>
Language, more info : Clean effects​</div></div>
</div><div style="text-align: center"><br>
​</div>
<div class="ToggleTriggerAnchor bbCodeSpoilerContainer">
<button type="button" class="button bbCodeSpoilerButton ToggleTrigger Tooltip JsOnly" data-target="> .SpoilerTarget"><span>Spoiler: <span class="SpoilerTitle">Media Info - Main Show</span></span></button>
<div class="SpoilerTarget bbCodeSpoilerText"><div style="text-align: left">General<br>
ID : 0 (0x0)<br>
Complete name : Z:\Satellite Recordings\Award Shows\2024 Brit Awards\2024 Brit Awards - 02-03-2024 - Main Show.ts<br>
Format : MPEG-TS<br>
File size : 29.6 GiB<br>
Duration : 2 h 28 min<br>
Overall bit rate mode : Variable<br>
Overall bit rate : 28.7 Mb/s<br>
<br>
Video<br>
ID : 512 (0x200)<br>
Menu ID : 1 (0x1)<br>
Format : AVC<br>
Format/Info : Advanced Video Codec<br>
Format profile : High 4:2:2@L4<br>
Format settings : CABAC / 3 Ref Frames<br>
Format settings, CABAC : Yes<br>
Format settings, Reference frames : 3 frames<br>
Codec ID : 27<br>
Duration : 2 h 28 min<br>
Bit rate mode : Constant<br>
Bit rate : 25.7 Mb/s<br>
Nominal bit rate : 32.7 Mb/s<br>
Width : 1 920 pixels<br>
Height : 1 080 pixels<br>
Display aspect ratio : 16:9<br>
Frame rate : 25.000 FPS<br>
Color space : YUV<br>
Chroma subsampling : 4:2:2<br>
Bit depth : 10 bits<br>
Scan type : MBAFF<br>
Scan type, store method : Interleaved fields<br>
Scan order : Top Field First<br>
Bits/(Pixel*Frame) : 0.495<br>
Stream size : 26.6 GiB (90%)<br>
Color range : Limited<br>
Color primaries : BT.709<br>
Transfer characteristics : BT.709<br>
Matrix coefficients : BT.709<br>
<br>
Audio #1<br>
ID : 4112 (0x1010)<br>
Menu ID : 1 (0x1)<br>
Format : MPEG Audio<br>
Format version : Version 1<br>
Format profile : Layer 2<br>
Codec ID : 3<br>
Duration : 2 h 28 min<br>
Bit rate mode : Constant<br>
Bit rate : 384 kb/s<br>
Channel(s) : 2 channels<br>
Sampling rate : 48.0 kHz<br>
Frame rate : 41.667 FPS (1152 SPF)<br>
Compression mode : Lossy<br>
Stream size : 407 MiB (1%)<br>
Language : German<br>
Language, more info : Clean effects<br>
<br>
Audio #2<br>
ID : 4128 (0x1020)<br>
Menu ID : 1 (0x1)<br>
Format : MPEG Audio<br>
Format version : Version 1<br>
Format profile : Layer 2<br>
Codec ID : 3<br>
Duration : 2 h 28 min<br>
Bit rate mode : Constant<br>
Bit rate : 384 kb/s<br>
Channel(s) : 2 channels<br>
Sampling rate : 48.0 kHz<br>
Frame rate : 41.667 FPS (1152 SPF)<br>
Compression mode : Lossy<br>
Stream size : 407 MiB (1%)<br>
Language : German<br>
Language, more info : Clean effects<br>
<br>
Audio #3<br>
ID : 4144 (0x1030)<br>
Menu ID : 1 (0x1)<br>
Format : MPEG Audio<br>
Format version : Version 1<br>
Format profile : Layer 2<br>
Codec ID : 3<br>
Duration : 2 h 28 min<br>
Bit rate mode : Constant<br>
Bit rate : 384 kb/s<br>
Channel(s) : 2 channels<br>
Sampling rate : 48.0 kHz<br>
Frame rate : 41.667 FPS (1152 SPF)<br>
Compression mode : Lossy<br>
Stream size : 407 MiB (1%)<br>
Language : German<br>
Language, more info : Clean effects<br>
<br>
Audio #4<br>
ID : 4160 (0x1040)<br>
Menu ID : 1 (0x1)<br>
Format : MPEG Audio<br>
Format version : Version 1<br>
Format profile : Layer 2<br>
Codec ID : 3<br>
Duration : 2 h 28 min<br>
Bit rate mode : Constant<br>
Bit rate : 384 kb/s<br>
Channel(s) : 2 channels<br>
Sampling rate : 48.0 kHz<br>
Frame rate : 41.667 FPS (1152 SPF)<br>
Compression mode : Lossy<br>
Stream size : 407 MiB (1%)<br>
Language : German<br>
Language, more info : Clean effects​</div></div>
</div><div style="text-align: center">​</div><b>Download<br>
<div class="bbCodeBlock bbCodeVfcHH HiddenContent">
<div class="attribution type">Hidden Content:</div>
<blockquote>You must reply before you can see the hidden data contained here.</blockquote>
</div></b><br>
<div style="text-align: center">​</div>
<div class="messageTextEndMarker">&nbsp;</div>
</blockquote>
</article>]]></description>
                <author><![CDATA[theslothsidd]]></author>
                </item>

                
                <item>
                <title><![CDATA[【Cinema Center】MOVIE - The BRIT Awards (2024) 1080p STV WEB-DL H264 - P147YPU5]]></title>
                <link><![CDATA[https://sharemania.us/threads/the-brit-awards-2024-1080p-stv-web-dl-h264-p147ypu5.239110/]]></link>
                <description><![CDATA[<article>
<blockquote class="messageText SelectQuoteContainer ugc baseHtml">
thanks
<div class="messageTextEndMarker">&nbsp;</div>
</blockquote>
</article>]]></description>
                <author><![CDATA[sunnyillion]]></author>
                </item>

                
                <item>
                <title><![CDATA[【Music Videos】Chris Brown - Don't Wake Me Up (2012) (1080P)]]></title>
                <link><![CDATA[https://sharemania.us/threads/chris-brown-dont-wake-me-up-2012-1080p.239111/]]></link>
                <description><![CDATA[<article>
<blockquote class="messageText SelectQuoteContainer ugc baseHtml">
<div style="text-align: center"><img src="https://blog.reelgood.com/wp-content/uploads/2024/03/BRIT-Awards-2024-1024x486.webp" class="bbCodeImage LbImage" alt="[​IMG]" data-url="https://blog.reelgood.com/wp-content/uploads/2024/03/BRIT-Awards-2024-1024x486.webp" style=""> <br>
<br>
<a href="https://www.radiox.co.uk/news/brit-awards/" target="_blank" class="externalLink" rel="nofollow"><b>The BRIT Awards 2024 with Mastercard Awards 2024</b></a> is set to take place this weekend and we have all the details about the ceremony including its nominees.<br>
<br>
<br>
After a successful move to the weekend for the first time in 2023, the prestigious awards will return to Saturday again this year - this time taking place on 2nd March 2024.<br>
<br>
Find out everything we know about the <a href="https://www.radiox.co.uk/news/brit-awards/" target="_blank" class="externalLink" rel="nofollow"><b>The BRIT Awards 2024 with Mastercard</b></a> so far including its date and start time, nominees, hosts and how to watch.<br>
<br>
Download:<br>
<br>
<div class="bbCodeBlock bbCodeVfcHH HiddenContent">
<div class="attribution type">Hidden Content:</div>
<blockquote>You must either reply or click 'Like' to see the hidden information contained here.</blockquote>
</div></div>
<div class="messageTextEndMarker">&nbsp;</div>
</blockquote>
</article>]]></description>
                <author><![CDATA[gamerfronts]]></author>
                </item>

                </channel></rss>